<?xml version="1.0" standalone="no"?><!DOCTYPE svg PUBLIC "-//W3C//DTD SVG 1.1//EN" "http://www.w3.org/Graphics/SVG/1.1/DTD/svg11.dtd" ><svg xmlns="http://www.w3.org/2000/svg"><metadata>Generated by Glyphter</metadata><defs><font id="fighter-creator-icons" horiz-adv-x="0"><font-face units-per-em="1024" ascent="1024" descent="0" font-family="fighter-creator-icons" font-weight="normal" /><missing-glyph horiz-adv-x="0" /><glyph unicode="&#x0041;" d="M528.426,48.768C528.426,48.768,122.462,48.768,122.462,48.768C64.759,48.768,18.5,92.16,18.5,146.278C18.5,146.304,18.5,926.49,18.5,926.49C18.5,980.122,64.759,1024,122.462,1024C122.462,1024,538.308,1024,538.308,1024C538.308,1024,850.193,731.443,850.193,731.443C850.193,731.443,850.193,483.226,850.193,483.226C833.041,485.683,815.889,487.629,798.199,487.629C780.535,487.629,763.383,485.683,746.231,483.226C746.231,483.226,746.231,682.675,746.231,682.675C746.231,682.675,486.314,682.675,486.314,682.675C486.314,682.675,486.314,926.49,486.314,926.49C486.314,926.49,122.462,926.49,122.462,926.49C122.462,926.49,122.462,146.304,122.462,146.304C122.462,146.304,490.999,146.304,490.999,146.304C497.246,111.181,510.225,78.515,528.426,48.768C528.426,48.768,528.426,48.768,528.426,48.768M1006.122,243.814C1006.122,243.814,850.193,243.814,850.193,243.814C850.193,243.814,850.193,390.093,850.193,390.093C850.193,390.093,746.231,390.093,746.231,390.093C746.231,390.093,746.231,243.814,746.231,243.814C746.231,243.814,590.276,243.814,590.276,243.814C590.276,243.814,590.276,146.304,590.276,146.304C590.276,146.304,746.231,146.304,746.231,146.304C746.231,146.304,746.231,0,746.231,0C746.231,0,850.193,0,850.193,0C850.193,0,850.193,146.304,850.193,146.304C850.193,146.304,1006.122,146.304,1006.122,146.304C1006.122,146.304,1006.122,243.814,1006.122,243.814C1006.122,243.814,1006.122,243.814,1006.122,243.814" class="icon-add-file"/><glyph unicode="&#x0042;" d="M0,858.263C0,858.263,1024,858.263,1024,858.263C1024,858.263,512,166.5,512,166.5" class="icon-arrow-down"/><glyph unicode="&#x0043;" d="M380.339,389.198C380.339,389.198,204.8,512.078,204.8,512.078C204.8,512.078,380.339,634.958,380.339,634.958C380.339,634.958,380.339,389.198,380.339,389.198C380.339,389.198,380.339,389.198,380.339,389.198M906.982,389.198C906.982,389.198,731.418,512.078,731.418,512.078C731.418,512.078,906.982,634.958,906.982,634.958C906.982,634.958,906.982,389.198,906.982,389.198C906.982,389.198,906.982,389.198,906.982,389.198M497.382,161C497.382,161,497.382,863.157,497.382,863.157C497.382,863.157,0,512.078,0,512.078C0,512.078,497.357,161,497.357,161C497.357,161,497.357,161,497.357,161M1024,161C1024,161,1024,863.157,1024,863.157C1024,863.157,526.618,512.078,526.618,512.078C526.618,512.078,1024,161,1024,161C1024,161,1024,161,1024,161" class="icon-backward"/><glyph unicode="&#x0044;" d="M682.825,1024C682.825,1024,341.5,1024,341.5,1024C294.55,1024,256.15,985.6,256.15,938.675C256.15,938.675,256.15,256,256.15,256C256.15,209.075,294.55,170.675,341.5,170.675C341.5,170.675,853.5,170.675,853.5,170.675C900.425,170.675,938.825,209.075,938.825,256C938.825,256,938.825,768,938.825,768C938.825,768,682.825,1024,682.825,1024C682.825,1024,682.825,1024,682.825,1024M853.5,256C853.5,256,341.5,256,341.5,256C341.5,256,341.5,938.675,341.5,938.675C341.5,938.675,640.15,938.675,640.15,938.675C640.15,938.675,640.15,725.325,640.15,725.325C640.15,725.325,853.5,725.325,853.5,725.325C853.5,725.325,853.5,256,853.5,256C853.5,256,853.5,256,853.5,256M170.825,853.325C170.825,853.325,170.825,85.325,170.825,85.325C170.825,85.325,853.5,85.325,853.5,85.325C853.5,85.325,853.5,0,853.5,0C853.5,0,170.825,0,170.825,0C123.9,0,85.5,38.4,85.5,85.325C85.5,85.325,85.5,853.325,85.5,853.325C85.5,853.325,170.825,853.325,170.825,853.325C170.825,853.325,170.825,853.325,170.825,853.325M426.825,597.325C426.825,597.325,426.825,512,426.825,512C426.825,512,768.15,512,768.15,512C768.15,512,768.15,597.325,768.15,597.325C768.15,597.325,426.825,597.325,426.825,597.325C426.825,597.325,426.825,597.325,426.825,597.325M426.825,426.675C426.825,426.675,426.825,341.325,426.825,341.325C426.825,341.325,640.15,341.325,640.15,341.325C640.15,341.325,640.15,426.675,640.15,426.675C640.15,426.675,426.825,426.675,426.825,426.675C426.825,426.675,426.825,426.675,426.825,426.675" class="icon-copy"/><glyph unicode="&#x0045;" d="M491.42,441.6C491.42,441.6,586.473,352.435,586.473,352.435C586.473,352.435,528.258,298.675,528.258,298.675C528.258,298.675,375.887,441.6,375.887,441.6C375.887,441.6,528.258,584.525,528.258,584.525C528.258,584.525,586.473,530.765,586.473,530.765C586.473,530.765,491.42,441.6,491.42,441.6C491.42,441.6,491.42,441.6,491.42,441.6M830.722,441.6C830.722,441.6,678.351,298.675,678.351,298.675C678.351,298.675,620.598,352.435,620.598,352.435C620.598,352.435,715.65,441.6,715.65,441.6C715.65,441.6,620.598,530.765,620.598,530.765C620.598,530.765,678.351,584.525,678.351,584.525C678.351,584.525,830.722,441.6,830.722,441.6C830.722,441.6,830.722,441.6,830.722,441.6M330.422,1024C330.422,1024,694.274,1024,694.274,1024C694.274,1024,967.17,768,967.17,768C967.17,768,967.17,256,967.17,256C967.17,209.075,926.236,170.675,876.214,170.675C876.214,170.675,330.422,170.675,330.422,170.675C280.374,170.675,239.439,209.075,239.439,256C239.439,256,239.439,938.675,239.439,938.675C239.439,985.6,280.374,1024,330.422,1024C330.422,1024,330.422,1024,330.422,1024M330.422,256C330.422,256,876.214,256,876.214,256C876.214,256,876.214,725.325,876.214,725.325C876.214,725.325,648.783,725.325,648.783,725.325C648.783,725.325,648.783,938.675,648.783,938.675C648.783,938.675,330.422,938.675,330.422,938.675C330.422,938.675,330.422,256,330.422,256C330.422,256,330.422,256,330.422,256M148.482,85.325C148.482,85.325,148.482,853.325,148.482,853.325C148.482,853.325,57.5,853.325,57.5,853.325C57.5,853.325,57.5,85.325,57.5,85.325C57.5,38.4,98.434,0,148.482,0C148.482,0,876.214,0,876.214,0C876.214,0,876.214,85.325,876.214,85.325C876.214,85.325,148.482,85.325,148.482,85.325C148.482,85.325,148.482,85.325,148.482,85.325" class="icon-copy-code"/><glyph unicode="&#x0046;" d="M1024,837.76C1024,837.76,837.76,1024,837.76,1024C837.76,1024,512,698.24,512,698.24C512,698.24,186.24,1024,186.24,1024C186.24,1024,0,837.76,0,837.76C0,837.76,325.76,512,325.76,512C325.76,512,0,186.24,0,186.24C0,186.24,186.24,0,186.24,0C186.24,0,512,325.76,512,325.76C512,325.76,837.76,0,837.76,0C837.76,0,1024,186.24,1024,186.24C1024,186.24,698.24,512,698.24,512C698.24,512,1024,837.76,1024,837.76C1024,837.76,1024,837.76,1024,837.76" class="icon-cross"/><glyph unicode="&#x0047;" d="M621.292,1024C621.292,1024,948.767,716.8,948.767,716.8C948.767,716.8,948.767,102.4,948.767,102.4C948.767,75.238,937.273,49.203,916.793,30.003C896.338,10.778,868.562,0,839.609,0C839.609,0,184.658,0,184.658,0C155.705,0,127.929,10.778,107.474,30.003C86.994,49.203,75.5,75.238,75.5,102.4C75.5,102.4,75.5,921.6,75.5,921.6C75.5,948.762,86.994,974.797,107.474,993.997C127.929,1013.222,155.705,1024,184.658,1024C184.658,1024,621.292,1024,621.292,1024C621.292,1024,621.292,1024,621.292,1024M839.609,102.4C839.609,102.4,839.609,665.6,839.609,665.6C839.609,665.6,566.713,665.6,566.713,665.6C566.713,665.6,566.713,921.6,566.713,921.6C566.713,921.6,184.658,921.6,184.658,921.6C184.658,921.6,184.658,102.4,184.658,102.4C184.658,102.4,839.609,102.4,839.609,102.4C839.609,102.4,839.609,102.4,839.609,102.4M512.134,153.6C512.134,153.6,293.817,358.4,293.817,358.4C293.817,358.4,430.265,358.4,430.265,358.4C430.265,358.4,430.265,512,430.265,512C430.265,512,594.002,512,594.002,512C594.002,512,594.002,358.4,594.002,358.4C594.002,358.4,730.45,358.4,730.45,358.4C730.45,358.4,512.134,153.6,512.134,153.6C512.134,153.6,512.134,153.6,512.134,153.6" class="icon-download"/><glyph unicode="&#x0048;" d="M643.661,634.958C643.661,634.958,819.2,512.078,819.2,512.078C819.2,512.078,643.661,389.198,643.661,389.198C643.661,389.198,643.661,634.958,643.661,634.958C643.661,634.958,643.661,634.958,643.661,634.958M117.043,634.958C117.043,634.958,292.582,512.078,292.582,512.078C292.582,512.078,117.043,389.198,117.043,389.198C117.043,389.198,117.043,634.958,117.043,634.958C117.043,634.958,117.043,634.958,117.043,634.958M526.643,863.157C526.643,863.157,526.643,161,526.643,161C526.643,161,1024,512.078,1024,512.078C1024,512.078,526.643,863.157,526.643,863.157C526.643,863.157,526.643,863.157,526.643,863.157M0,863.157C0,863.157,0,161,0,161C0,161,497.382,512.078,497.382,512.078C497.382,512.078,0,863.157,0,863.157C0,863.157,0,863.157,0,863.157" class="icon-forward"/><glyph unicode="&#x0049;" d="M438.861,977.918C530.56,977.918,618.496,941.49,683.366,876.645C748.186,811.8,784.64,723.864,784.64,632.139C784.64,546.507,753.229,467.787,701.645,407.141C701.645,407.141,716.006,392.779,716.006,392.779C716.006,392.779,758.042,392.779,758.042,392.779C758.042,392.779,1024,126.795,1024,126.795C1024,126.795,944.205,47,944.205,47C944.205,47,678.246,312.984,678.246,312.984C678.246,312.984,678.246,355.019,678.246,355.019C678.246,355.019,663.859,369.381,663.859,369.381C603.238,317.771,524.493,286.386,438.861,286.386C351.488,286.386,267.52,319.461,203.699,378.674C203.699,378.674,280.115,452.453,280.115,452.453C322.253,415.256,377.754,392.779,438.861,392.779C571.853,392.779,678.246,499.173,678.246,632.139C678.246,765.131,571.853,871.525,438.861,871.525C305.869,871.525,199.475,765.131,199.475,632.139C199.475,631.038,199.501,629.938,199.501,628.837C199.501,628.837,292.582,628.837,292.582,628.837C292.582,628.837,144.819,482.942,144.819,482.942C144.819,482.942,142.259,488.011,142.259,488.011C142.259,488.011,0,628.837,0,628.837C0,628.837,93.082,628.837,93.082,628.837C93.082,629.912,93.107,631.013,93.107,632.139C93.107,723.864,129.51,811.8,194.355,876.645C259.2,941.49,347.162,977.918,438.861,977.918C438.861,977.918,438.861,977.918,438.861,977.918" class="icon-Frame 9"/><glyph unicode="&#x004a;" d="M64.23,1000.959C64.23,1000.959,5.12,941.849,5.12,941.849C5.12,941.849,58.65,888.319,58.65,888.319C41.395,881.458,26.598,869.58,16.154,854.246C5.709,838.886,0.077,820.786,0,802.201C0,802.201,0,197.119,0,197.119C0,172.441,9.805,148.761,27.264,131.302C44.723,113.842,68.403,104.038,93.082,104.038C93.082,104.038,372.352,104.038,372.352,104.038C372.352,104.038,372.352,569.471,372.352,569.471C372.352,569.471,377.472,569.471,377.472,569.471C377.472,569.471,545.51,401.458,545.51,401.458C510.285,371.327,482.842,333.183,465.459,290.201C488.166,234.905,526.874,187.622,576.64,154.444C626.406,121.266,684.928,103.73,744.73,104.038C773.734,104.114,802.56,108.364,830.362,116.607C830.362,116.607,923.469,23.5,923.469,23.5C923.469,23.5,982.579,82.61,982.579,82.61C982.579,82.61,911.36,153.83,911.36,153.83M279.27,197.119C279.27,197.119,93.082,197.119,93.082,197.119C93.082,197.119,93.082,336.767,93.082,336.767C93.082,336.767,279.27,336.767,279.27,336.767M279.27,429.849C279.27,429.849,93.082,429.849,93.082,429.849C93.082,429.849,93.082,569.471,93.082,569.471C93.082,569.471,279.27,569.471,279.27,569.471M279.27,662.578C279.27,662.578,93.082,662.578,93.082,662.578C93.082,662.578,93.082,802.201,93.082,802.201C93.082,802.201,144.742,802.201,144.742,802.201C144.742,802.201,279.27,667.698,279.27,667.698M744.73,173.849C727.27,173.849,710.016,177.766,694.298,185.318C678.554,192.87,664.704,203.878,653.798,217.522C642.893,231.142,635.187,247.065,631.27,264.089C627.354,281.087,627.302,298.777,631.142,315.801C631.142,315.801,770.79,176.178,770.79,176.178C762.214,174.412,753.485,173.644,744.73,173.849C744.73,173.849,744.73,173.849,744.73,173.849M709.35,476.39C709.35,476.39,784.282,401.458,784.282,401.458C800.333,395.647,814.899,386.38,826.982,374.322C839.04,362.265,848.307,347.673,854.118,331.647C854.118,331.647,974.669,211.071,974.669,211.071C995.123,234.726,1011.789,261.426,1024,290.201C1001.293,345.522,962.56,392.806,912.819,425.983C863.053,459.135,804.531,476.697,744.73,476.39C744.73,476.39,709.35,476.39,709.35,476.39C709.35,476.39,709.35,476.39,709.35,476.39M558.541,802.201C558.541,802.201,558.541,662.578,558.541,662.578C558.541,662.578,521.318,662.578,521.318,662.578C521.318,662.578,614.4,569.471,614.4,569.471C614.4,569.471,930.918,569.471,930.918,569.471C930.918,569.471,930.918,802.201,930.918,802.201C930.918,826.905,921.088,850.585,903.654,868.044C886.195,885.503,862.515,895.308,837.811,895.308C837.811,895.308,288.589,895.308,288.589,895.308C288.589,895.308,381.67,802.201,381.67,802.201M651.622,802.201C651.622,802.201,837.811,802.201,837.811,802.201C837.811,802.201,837.811,662.578,837.811,662.578C837.811,662.578,651.622,662.578,651.622,662.578C651.622,662.578,651.622,802.201,651.622,802.201C651.622,802.201,651.622,802.201,651.622,802.201" class="icon-hide-hitbox"/><glyph unicode="&#x004b;" d="M564.031,564.505C564.031,564.505,824.197,564.505,824.197,564.505C824.197,564.505,746.145,642.558,746.145,642.558C746.145,642.558,820.024,716.437,820.024,716.437C820.024,716.437,1024,512.487,1024,512.487C1023.974,512.487,820.024,308.511,820.024,308.511C820.024,308.511,746.145,382.391,746.145,382.391C746.145,382.391,824.197,460.444,824.197,460.444C824.197,460.444,564.031,460.444,564.031,460.444C564.031,460.444,564.031,200.277,564.031,200.277C564.031,200.277,642.083,278.33,642.083,278.33C642.083,278.33,715.963,204.45,715.963,204.45C715.963,204.45,511.987,0.5,511.987,0.5C511.987,0.5,308.037,204.45,308.037,204.45C308.037,204.45,381.917,278.33,381.917,278.33C381.917,278.33,459.969,200.277,459.969,200.277C459.969,200.277,459.969,460.444,459.969,460.444C459.969,460.444,199.803,460.444,199.803,460.444C199.803,460.444,277.855,382.391,277.855,382.391C277.855,382.391,203.976,308.511,203.976,308.511C203.976,308.511,0,512.487,0,512.487C0,512.487,203.976,716.437,203.976,716.437C203.976,716.437,277.855,642.558,277.855,642.558C277.855,642.558,199.803,564.505,199.803,564.505C199.803,564.505,459.969,564.505,459.969,564.505C459.969,564.505,459.969,824.671,459.969,824.671C459.969,824.671,381.917,746.619,381.917,746.619C381.917,746.619,308.037,820.499,308.037,820.499C308.037,820.499,511.987,1024.474,511.987,1024.474C511.987,1024.474,715.963,820.499,715.963,820.499C715.963,820.499,642.083,746.619,642.083,746.619C642.083,746.619,564.031,824.671,564.031,824.671C564.031,824.671,564.031,564.505,564.031,564.505C564.031,564.505,564.031,564.505,564.031,564.505" class="icon-move"/><glyph unicode="&#x004c;" d="M0,882.346C0,882.346,0,228.189,0,228.189C0,201.514,10.598,175.914,29.466,157.021C48.358,138.154,73.958,127.555,100.634,127.555C100.634,127.555,402.56,127.555,402.56,127.555C402.56,127.555,402.56,630.749,402.56,630.749C402.56,630.749,1006.387,630.749,1006.387,630.749C1006.387,630.749,1006.387,882.346,1006.387,882.346C1006.387,909.046,995.789,934.646,976.922,953.514C958.029,972.381,932.454,982.979,905.754,982.979C905.754,982.979,100.634,982.979,100.634,982.979C73.958,982.979,48.358,972.381,29.466,953.514C10.598,934.646,0,909.046,0,882.346C0,882.346,0,882.346,0,882.346M100.634,882.346C100.634,882.346,301.926,882.346,301.926,882.346C301.926,882.346,301.926,731.382,301.926,731.382C301.926,731.382,100.634,731.382,100.634,731.382M301.926,228.189C301.926,228.189,100.634,228.189,100.634,228.189C100.634,228.189,100.634,379.152,100.634,379.152C100.634,379.152,301.926,379.152,301.926,379.152M301.926,479.786C301.926,479.786,100.634,479.786,100.634,479.786C100.634,479.786,100.634,630.749,100.634,630.749C100.634,630.749,301.926,630.749,301.926,630.749M402.56,731.382C402.56,731.382,402.56,882.346,402.56,882.346C402.56,882.346,603.827,882.346,603.827,882.346C603.827,882.346,603.827,731.382,603.827,731.382M905.754,731.382C905.754,731.382,704.461,731.382,704.461,731.382C704.461,731.382,704.461,882.346,704.461,882.346C704.461,882.346,905.754,882.346,905.754,882.346M775.373,346.896C775.373,346.896,915.994,346.896,915.994,346.896C915.994,346.896,873.805,389.085,873.805,389.085C873.805,389.085,913.741,429.021,913.741,429.021C913.741,429.021,1024,318.762,1024,318.762C1024,318.762,913.741,208.502,913.741,208.502C913.741,208.502,873.805,248.464,873.805,248.464C873.805,248.464,915.994,290.653,915.994,290.653C915.994,290.653,775.373,290.653,775.373,290.653C775.373,290.653,775.373,150.006,775.373,150.006C775.373,150.006,817.562,192.195,817.562,192.195C817.562,192.195,857.498,152.259,857.498,152.259C857.498,152.259,747.238,42,747.238,42C747.238,42,636.979,152.259,636.979,152.259C636.979,152.259,676.941,192.195,676.941,192.195C676.941,192.195,719.13,150.006,719.13,150.006C719.13,150.006,719.13,290.653,719.13,290.653C719.13,290.653,578.483,290.653,578.483,290.653C578.483,290.653,620.672,248.464,620.672,248.464C620.672,248.464,580.736,208.502,580.736,208.502C580.736,208.502,470.477,318.762,470.477,318.762C470.477,318.762,580.736,429.021,580.736,429.021C580.736,429.021,620.672,389.085,620.672,389.085C620.672,389.085,578.483,346.896,578.483,346.896C578.483,346.896,719.13,346.896,719.13,346.896C719.13,346.896,719.13,487.517,719.13,487.517C719.13,487.517,676.941,445.328,676.941,445.328C676.941,445.328,636.979,485.264,636.979,485.264C636.979,485.264,747.238,595.523,747.238,595.523C747.238,595.523,857.498,485.264,857.498,485.264C857.498,485.264,817.562,445.328,817.562,445.328C817.562,445.328,775.373,487.517,775.373,487.517C775.373,487.517,775.373,346.896,775.373,346.896C775.373,346.896,775.373,346.896,775.373,346.896" class="icon-move-hitbox"/><glyph unicode="&#x004d;" d="M488.129,243.814C488.129,209.69,494.478,176.998,505.204,146.304C505.204,146.278,98.036,146.278,98.036,146.278C44.404,146.278,0.5,189.696,0.5,243.814C0.5,243.814,0.5,926.49,0.5,926.49C0.5,980.122,44.404,1024,98.036,1024C98.036,1024,780.711,1024,780.711,1024C834.83,1024,878.222,980.122,878.222,926.49C878.222,926.49,878.222,519.322,878.222,519.322C847.502,530.048,814.836,536.397,780.711,536.397C780.711,536.397,780.711,926.49,780.711,926.49C780.711,926.49,98.036,926.49,98.036,926.49C98.036,926.49,98.036,243.814,98.036,243.814C98.036,243.814,488.129,243.814,488.129,243.814C488.129,243.814,488.129,243.814,488.129,243.814M534.951,571.008C534.951,571.008,400.833,398.387,400.833,398.387C400.858,398.387,305.268,513.459,305.268,513.459C305.268,513.459,171.175,341.325,171.175,341.325C171.175,341.325,505.204,341.325,505.204,341.325C524.711,395.955,559.809,443.238,605.146,477.389C605.146,477.389,534.951,571.008,534.951,571.008C534.951,571.008,534.951,571.008,534.951,571.008M805.492,268.595C805.492,268.595,929.37,268.595,929.37,268.595C929.37,268.595,892.199,305.766,892.199,305.766C892.199,305.766,927.374,340.941,927.374,340.941C927.374,340.941,1024.5,243.814,1024.5,243.814C1024.5,243.814,927.374,146.688,927.374,146.688C927.374,146.688,892.199,181.862,892.199,181.862C892.199,181.862,929.37,219.034,929.37,219.034C929.37,219.034,805.492,219.034,805.492,219.034C805.492,219.034,805.492,95.155,805.492,95.155C805.492,95.155,842.638,132.326,842.638,132.326C842.638,132.326,877.838,97.126,877.838,97.126C877.838,97.126,780.711,0,780.711,0C780.711,0,683.585,97.126,683.585,97.126C683.585,97.126,718.759,132.326,718.759,132.326C718.759,132.326,755.93,95.155,755.93,95.155C755.93,95.155,755.93,219.034,755.93,219.034C755.93,219.034,632.026,219.034,632.026,219.034C632.026,219.034,669.198,181.862,669.198,181.862C669.198,181.862,634.023,146.688,634.023,146.688C634.023,146.688,536.897,243.814,536.897,243.814C536.897,243.814,634.023,340.941,634.023,340.941C634.023,340.941,669.198,305.766,669.198,305.766C669.198,305.766,632.026,268.595,632.026,268.595C632.026,268.595,755.93,268.595,755.93,268.595C755.93,268.595,755.93,392.474,755.93,392.474C755.93,392.474,718.759,355.302,718.759,355.302C718.759,355.302,683.585,390.502,683.585,390.502C683.585,390.502,780.711,487.629,780.711,487.629C780.711,487.629,877.838,390.502,877.838,390.502C877.838,390.502,842.638,355.302,842.638,355.302C842.638,355.302,805.492,392.474,805.492,392.474C805.492,392.474,805.492,268.595,805.492,268.595C805.492,268.595,805.492,268.595,805.492,268.595" class="icon-move-image"/><glyph unicode="&#x004e;" d="M665.6,1024C760.653,1024,851.814,986.24,919.04,919.014C986.24,851.814,1024,760.653,1024,665.6C1024,526.848,945.152,407.04,830.464,347.136C796.16,281.6,742.4,227.84,676.864,193.536C616.96,78.848,497.152,0,358.4,0C263.347,0,172.186,37.76,104.986,104.96C37.76,172.186,0,263.347,0,358.4C0,497.152,78.848,616.96,193.536,676.864C227.84,742.4,281.6,796.16,347.136,830.464C407.04,945.152,526.848,1024,665.6,1024C665.6,1024,665.6,1024,665.6,1024M512,153.6C416.947,153.6,325.786,191.36,258.586,258.586C191.36,325.786,153.6,416.947,153.6,512C121.344,468.992,102.4,416.256,102.4,358.4C102.4,290.509,129.382,225.382,177.382,177.382C225.382,129.382,290.509,102.4,358.4,102.4C416.256,102.4,468.992,121.344,512,153.6C512,153.6,512,153.6,512,153.6M665.6,307.2C570.547,307.2,479.386,344.96,412.186,412.186C344.96,479.386,307.2,570.547,307.2,665.6C307.2,665.6,307.2,665.6,307.2,665.6C274.944,622.592,256,569.856,256,512C256,444.109,282.982,378.982,330.982,330.982C378.982,282.982,444.109,256,512,256C569.856,256,622.592,274.944,665.6,307.2C665.6,307.2,665.6,307.2,665.6,307.2M665.6,921.6C607.744,921.6,555.008,902.656,512,870.4C607.053,870.4,698.214,832.64,765.414,765.414C832.64,698.214,870.4,607.053,870.4,512C902.656,555.008,921.6,607.744,921.6,665.6C921.6,733.491,894.618,798.618,846.618,846.618C798.618,894.618,733.491,921.6,665.6,921.6M409.6,665.6C409.6,597.709,436.582,532.582,484.582,484.582C532.582,436.582,597.709,409.6,665.6,409.6C696.32,409.6,725.504,414.72,752.64,424.96C762.88,452.096,768,481.28,768,512C768,579.891,741.018,645.018,693.018,693.018C645.018,741.018,579.891,768,512,768C481.28,768,452.096,762.88,424.96,752.64C414.72,725.504,409.6,696.32,409.6,665.6C409.6,665.6,409.6,665.6,409.6,665.6" class="icon-onion-skin"/><glyph unicode="&#x004f;" d="M824.692,564.519C824.692,564.519,564.519,564.519,564.519,564.519C564.519,564.519,564.519,824.692,564.519,824.692C564.519,824.692,642.574,746.638,642.574,746.638C642.574,746.638,716.455,820.519,716.455,820.519C716.455,820.519,512.5,1024.5,512.5,1024.5C512.5,1024.5,308.519,820.519,308.519,820.519C308.519,820.519,382.426,746.638,382.426,746.638C382.426,746.638,460.455,824.692,460.455,824.692C460.455,824.692,460.455,564.519,460.455,564.519C460.455,564.519,200.308,564.519,200.308,564.519C200.308,564.519,278.362,642.574,278.362,642.574C278.362,642.574,204.455,716.455,204.455,716.455C204.455,716.455,0.5,512.5,0.5,512.5C0.5,512.5,204.455,308.519,204.455,308.519C204.455,308.519,278.362,382.401,278.362,382.401C278.362,382.401,200.308,460.455,200.308,460.455C200.308,460.455,460.455,460.455,460.455,460.455C460.455,460.455,460.455,200.282,460.455,200.282C460.455,200.282,382.426,278.337,382.426,278.337C382.426,278.337,308.519,204.455,308.519,204.455C308.519,204.455,512.5,0.5,512.5,0.5C512.5,0.5,565.236,53.236,565.236,53.236C547.802,91.815,538.1,134.618,538.1,179.7C538.1,224.142,547.546,266.407,564.519,304.551C564.519,304.551,564.519,460.455,564.519,460.455C564.519,460.455,720.449,460.455,720.449,460.455C758.593,477.454,800.833,486.9,845.3,486.9C890.382,486.9,933.185,477.172,971.738,459.738C971.738,459.738,1024.5,512.5,1024.5,512.5C1024.5,512.5,820.519,716.455,820.519,716.455C820.519,716.455,746.638,642.574,746.638,642.574C746.638,642.574,824.692,564.519,824.692,564.519C824.692,564.519,824.692,564.519,824.692,564.519M853.825,0.5C783.86,0.5,723.777,41.767,697.511,100.34C697.511,100.34,755.879,100.34,755.879,100.34C777.383,70.388,813.223,50.42,853.825,50.42C885.518,50.42,915.905,62.682,938.305,84.519C960.705,106.382,973.3,136.001,973.3,166.9C973.3,197.774,960.705,227.418,938.305,249.255C915.905,271.092,885.518,283.38,853.825,283.38C807.745,283.38,768.5,257.422,748.02,220.148C748.02,220.148,802.625,166.9,802.625,166.9C802.625,166.9,666.1,166.9,666.1,166.9C666.1,166.9,666.1,300.02,666.1,300.02C666.1,300.02,710.465,256.756,710.465,256.756C740.852,302.682,793.409,333.3,853.825,333.3C899.086,333.3,942.503,315.764,974.503,284.558C1006.529,253.351,1024.5,211.009,1024.5,166.9C1024.5,122.766,1006.503,80.423,974.503,49.217C942.503,18.01,899.086,0.5,853.825,0.5C853.825,0.5,853.825,0.5,853.825,0.5" class="icon-reset-move"/><glyph unicode="&#x0050;" d="M0,814.689C0,814.689,0,209.607,0,209.607C0,184.903,9.805,161.223,27.264,143.764C44.723,126.305,68.403,116.5,93.082,116.5C93.082,116.5,372.378,116.5,372.378,116.5C372.378,116.5,372.378,581.959,372.378,581.959C372.378,581.959,930.918,581.959,930.918,581.959C930.918,581.959,930.918,814.689,930.918,814.689C930.918,839.367,921.088,863.047,903.654,880.506C886.195,897.966,862.515,907.77,837.811,907.77C837.811,907.77,93.082,907.77,93.082,907.77C68.403,907.77,44.723,897.966,27.264,880.506C9.805,863.047,0,839.367,0,814.689M93.082,814.689C93.082,814.689,279.27,814.689,279.27,814.689C279.27,814.689,279.27,675.041,279.27,675.041C279.27,675.041,93.082,675.041,93.082,675.041M279.27,209.607C279.27,209.607,93.082,209.607,93.082,209.607C93.082,209.607,93.082,349.23,93.082,349.23C93.082,349.23,279.27,349.23,279.27,349.23M279.27,442.337C279.27,442.337,93.082,442.337,93.082,442.337C93.082,442.337,93.082,581.959,93.082,581.959C93.082,581.959,279.27,581.959,279.27,581.959M372.352,675.041C372.352,675.041,372.352,814.689,372.352,814.689C372.352,814.689,558.541,814.689,558.541,814.689C558.541,814.689,558.541,675.041,558.541,675.041M837.811,675.041C837.811,675.041,651.622,675.041,651.622,675.041C651.622,675.041,651.622,814.689,651.622,814.689C651.622,814.689,837.811,814.689,837.811,814.689M744.73,349.23C753.92,349.23,762.931,346.516,770.586,341.396C778.24,336.276,784.205,329.006,787.738,320.506C791.245,312.007,792.166,302.638,790.374,293.601C788.582,284.59,784.154,276.295,777.651,269.767C771.123,263.265,762.829,258.836,753.818,257.044C744.781,255.252,735.411,256.174,726.912,259.681C718.413,263.214,711.142,269.178,706.022,276.833C700.902,284.487,698.189,293.473,698.189,302.689C698.189,315.028,703.078,326.881,711.808,335.61C720.538,344.34,732.39,349.23,744.73,349.23C744.73,349.23,744.73,349.23,744.73,349.23M744.73,488.878C804.531,489.185,863.053,471.623,912.819,438.446C962.56,405.294,1001.293,358.01,1024,302.689C1001.037,247.546,962.253,200.442,912.538,167.316C862.848,134.19,804.454,116.5,744.73,116.5C685.005,116.5,626.611,134.19,576.896,167.316C527.206,200.442,488.422,247.546,465.459,302.689C488.166,358.01,526.874,405.294,576.64,438.446C626.406,471.623,684.928,489.185,744.73,488.878C744.73,488.878,744.73,488.878,744.73,488.878M744.73,419.041C721.715,419.041,699.213,412.231,680.09,399.431C660.941,386.657,646.016,368.481,637.21,347.207C628.403,325.959,626.099,302.561,630.605,279.982C635.085,257.402,646.17,236.692,662.451,220.41C678.707,204.129,699.443,193.044,722.022,188.564C744.602,184.058,768,186.362,789.248,195.194C810.522,204.001,828.698,218.9,841.472,238.049C854.272,257.172,861.082,279.674,861.082,302.689C861.082,333.562,848.819,363.156,827.008,384.967C805.197,406.804,775.578,419.041,744.73,419.041C744.73,419.041,744.73,419.041,744.73,419.041" class="icon-show-hitbox"/><glyph unicode="&#x0051;" d="M652.122,884.73C750.887,884.73,845.582,845.51,915.418,775.674C985.255,705.837,1024.5,611.117,1024.5,512.378C1024.474,413.613,985.255,318.893,915.418,249.056C845.582,179.245,750.887,140,652.122,140C553.358,140,458.663,179.245,388.826,249.056C318.99,318.893,279.77,413.613,279.77,512.378C279.77,611.117,318.99,705.837,388.826,775.674C458.663,845.51,553.358,884.73,652.122,884.73M652.122,791.648C578.062,791.648,507.022,762.208,454.644,709.83C402.266,657.478,372.852,586.438,372.852,512.378C372.852,438.291,402.266,367.277,454.644,314.899C507.022,262.522,578.062,233.082,652.122,233.082C726.183,233.082,797.223,262.522,849.601,314.899C901.978,367.277,931.393,438.291,931.393,512.378C931.393,586.438,901.978,657.478,849.601,709.83C797.223,762.208,726.183,791.648,652.122,791.648C652.122,791.648,652.122,791.648,652.122,791.648M605.582,698.541C605.582,698.541,675.393,698.541,675.393,698.541C675.393,698.541,675.393,522.618,675.393,522.618C675.393,522.618,783.86,414.15,783.86,414.15C783.86,414.15,734.503,364.819,734.503,364.819C734.503,364.819,605.582,493.741,605.582,493.741C605.582,493.741,605.582,698.541,605.582,698.541C605.582,698.541,605.582,698.541,605.582,698.541M47.041,233.082C34.676,233.082,22.849,237.997,14.119,246.726C5.39,255.456,0.5,267.283,0.5,279.648C0.5,291.987,5.39,303.814,14.119,312.544C22.849,321.274,34.676,326.189,47.041,326.189C47.041,326.189,225.294,326.189,225.294,326.189C239.732,293.139,258.343,261.958,279.77,233.082C279.77,233.082,47.041,233.082,47.041,233.082C47.041,233.082,47.041,233.082,47.041,233.082M93.582,465.811C81.242,465.811,69.39,470.726,60.66,479.456C51.93,488.186,47.041,500.013,47.041,512.378C47.041,524.717,51.93,536.544,60.66,545.274C69.39,554.003,81.242,558.918,93.582,558.918C93.582,558.918,188.993,558.918,188.993,558.918C188.993,558.918,186.663,512.378,186.663,512.378C186.663,512.378,188.993,465.811,188.993,465.811C188.993,465.811,93.582,465.811,93.582,465.811C93.582,465.811,93.582,465.811,93.582,465.811M140.122,698.541C127.783,698.541,115.93,703.456,107.201,712.186C98.471,720.915,93.582,732.742,93.582,745.082C93.582,757.446,98.471,769.274,107.201,778.003C115.93,786.733,127.783,791.648,140.122,791.648C140.122,791.648,279.77,791.648,279.77,791.648C258.343,762.771,239.732,731.59,225.294,698.541C225.294,698.541,140.122,698.541,140.122,698.541C140.122,698.541,140.122,698.541,140.122,698.541" class="icon-speed"/><glyph unicode="&#x0052;" d="M1024,682.883C1024,682.883,796.442,910.442,796.442,910.442C796.442,910.442,796.442,739.766,796.442,739.766C796.442,739.766,398.234,739.766,398.234,739.766C398.234,739.766,398.234,626,398.234,626C398.234,626,796.442,626,796.442,626C796.442,626,796.442,455.325,796.442,455.325M227.558,569.091C227.558,569.091,0,341.558,0,341.558C0,341.558,227.558,114,227.558,114C227.558,114,227.558,284.65,227.558,284.65C227.558,284.65,625.766,284.65,625.766,284.65C625.766,284.65,625.766,398.442,625.766,398.442C625.766,398.442,227.558,398.442,227.558,398.442C227.558,398.442,227.558,569.117,227.558,569.117C227.558,569.117,227.558,569.117,227.558,569.117" class="icon-switch"/><glyph unicode="&#x0053;" d="M148.146,114.266C148.146,84.084,160.921,55.156,183.679,33.806C206.412,12.481,237.26,0.5,269.439,0.5C269.439,0.5,754.585,0.5,754.585,0.5C786.764,0.5,817.612,12.481,840.345,33.806C863.103,55.156,875.878,84.084,875.878,114.266C875.878,114.266,875.878,796.942,875.878,796.942C875.878,796.942,148.146,796.942,148.146,796.942C148.146,796.942,148.146,114.266,148.146,114.266C148.146,114.266,148.146,114.266,148.146,114.266M269.439,683.15C269.439,683.15,754.585,683.15,754.585,683.15C754.585,683.15,754.585,114.266,754.585,114.266C754.585,114.266,269.439,114.266,269.439,114.266C269.439,114.266,269.439,683.15,269.439,683.15C269.439,683.15,269.439,683.15,269.439,683.15M724.274,967.591C724.274,967.591,663.628,1024.5,663.628,1024.5C663.628,1024.5,360.396,1024.5,360.396,1024.5C360.396,1024.5,299.75,967.591,299.75,967.591C299.75,967.591,87.5,967.591,87.5,967.591C87.5,967.591,87.5,853.825,87.5,853.825C87.5,853.825,936.524,853.825,936.524,853.825C936.524,853.825,936.524,967.591,936.524,967.591C936.524,967.591,724.274,967.591,724.274,967.591C724.274,967.591,724.274,967.591,724.274,967.591" class="icon-trash"/><glyph unicode="&#x0054;" d="M731.418,380.339C731.418,380.339,1024,87.782,1024,87.782C1024,87.782,936.218,0,936.218,0C936.218,0,643.661,292.582,643.661,292.582C643.661,292.582,643.661,338.79,643.661,338.79C643.661,338.79,627.84,355.174,627.84,355.174C561.152,297.83,474.547,263.322,380.339,263.322C279.45,263.322,182.707,303.386,111.386,374.707C40.064,446.029,0,542.771,0,643.661C0,744.525,40.064,841.267,111.386,912.589C182.707,983.936,279.45,1024,380.339,1024C481.203,1024,577.946,983.936,649.267,912.589C720.614,841.267,760.678,744.525,760.678,643.661C760.678,549.453,726.144,462.848,668.8,396.134C668.8,396.134,685.184,380.339,685.184,380.339C685.184,380.339,731.418,380.339,731.418,380.339C731.418,380.339,731.418,380.339,731.418,380.339M380.339,380.339C526.618,380.339,643.635,497.382,643.635,643.661C643.635,789.939,526.618,906.957,380.339,906.957C234.035,906.957,117.018,789.939,117.018,643.661C117.018,497.382,234.035,380.339,380.339,380.339C380.339,380.339,380.339,380.339,380.339,380.339M526.618,614.4C526.618,614.4,409.6,614.4,409.6,614.4C409.6,614.4,409.6,497.382,409.6,497.382C409.6,497.382,351.078,497.382,351.078,497.382C351.078,497.382,351.078,614.4,351.078,614.4C351.078,614.4,234.035,614.4,234.035,614.4C234.035,614.4,234.035,672.922,234.035,672.922C234.035,672.922,351.078,672.922,351.078,672.922C351.078,672.922,351.078,789.939,351.078,789.939C351.078,789.939,409.6,789.939,409.6,789.939C409.6,789.939,409.6,672.922,409.6,672.922C409.6,672.922,526.618,672.922,526.618,672.922C526.618,672.922,526.618,614.4,526.618,614.4C526.618,614.4,526.618,614.4,526.618,614.4" class="icon-zoom-in"/><glyph unicode="&#x0055;" d="M731.418,380.339C731.418,380.339,685.184,380.339,685.184,380.339C685.184,380.339,668.8,396.134,668.8,396.134C726.144,462.848,760.678,549.453,760.678,643.661C760.678,744.525,720.614,841.267,649.267,912.589C577.946,983.936,481.203,1024,380.339,1024C279.45,1024,182.707,983.936,111.386,912.589C40.064,841.267,0,744.525,0,643.661C0,542.771,40.064,446.029,111.386,374.707C182.707,303.386,279.45,263.322,380.339,263.322C474.547,263.322,561.152,297.83,627.84,355.174C627.84,355.174,643.661,338.79,643.661,338.79C643.661,338.79,643.661,292.557,643.661,292.557C643.661,292.557,936.218,0,936.218,0C936.218,0,1024,87.757,1024,87.757C1024,87.782,731.418,380.339,731.418,380.339C731.418,380.339,731.418,380.339,731.418,380.339M380.339,380.339C234.035,380.339,117.018,497.357,117.018,643.661C117.018,789.939,234.035,906.957,380.339,906.957C526.618,906.957,643.661,789.939,643.661,643.661C643.661,497.357,526.618,380.339,380.339,380.339C380.339,380.339,380.339,380.339,380.339,380.339M234.035,672.922C234.035,672.922,526.618,672.922,526.618,672.922C526.618,672.922,526.618,614.4,526.618,614.4C526.618,614.4,234.035,614.4,234.035,614.4C234.035,614.4,234.035,672.922,234.035,672.922C234.035,672.922,234.035,672.922,234.035,672.922" class="icon-zoom-out"/></font>
</defs>
</svg>
